<svg xmlns="http://www.w3.org/2000/svg" xmlns:xlink="http://www.w3.org/1999/xlink" width="64" height="64" viewBox="0 0 64 64" fill="none"><defs><linearGradient id="linear_0" x1="-86.68190400907496%" y1="123.32166249298098%" x2="100%" y2="38.013602027118054%" gradientUnits="objectBoundingBox"><stop offset="0" stop-color="#BB3467" stop-opacity="1" /><stop offset="1" stop-color="#553EE7" stop-opacity="1" /></linearGradient><linearGradient id="linear_1" x1="-86.68190400907496%" y1="123.32166249298098%" x2="100%" y2="38.013602027118054%" gradientUnits="objectBoundingBox"><stop offset="0" stop-color="#BB3467" stop-opacity="1" /><stop offset="1" stop-color="#553EE7" stop-opacity="1" /></linearGradient></defs><g opacity="1" transform="translate(-0.000039950284190126695 0.00005425347217169474)  rotate(0 32 32)"><g opacity="1" transform="translate(6 9)  rotate(0 26.5 24)"><path id="Fill 3" fill-rule="evenodd" fill="url(#linear_0)" transform="translate(5.973200000000006 11.94718823529365)  rotate(0 20.11764705882353 17.87955882352941)" opacity="0.9" d="M17.97,0.62L0.62,17.97C0.22,18.36 0,18.9 0,19.46L0,33.64C0,34.81 0.95,35.76 2.12,35.76L9.53,35.76C10.7,35.76 11.65,34.81 11.65,33.64L11.65,28.35C11.65,27.18 12.6,26.23 13.76,26.23L24.35,26.23C25.52,26.23 26.47,27.18 26.47,28.35L26.47,33.64C26.47,34.81 27.42,35.76 28.59,35.76L38.12,35.76C39.29,35.76 40.24,34.81 40.24,33.64L40.24,20.78C40.24,20.21 40.01,19.67 39.62,19.28L20.96,0.62C20.13,-0.21 18.79,-0.21 17.97,0.62Z " /><path id="Fill 1" fill-rule="evenodd" fill="url(#linear_1)" transform="translate(0.05787058823528923 0.05808235294080077)  rotate(0 26.03276470588235 14.075470588235294)" opacity="0.9" d="M24.53,0.62L0.62,24.54C-0.21,25.36 -0.21,26.7 0.62,27.53C1.45,28.36 2.79,28.36 3.61,27.53L24.53,6.61C25.36,5.78 26.7,5.78 27.53,6.61L48.45,27.53C49.28,28.36 50.62,28.36 51.45,27.53C52.27,26.7 52.27,25.36 51.45,24.54L27.53,0.62C26.7,-0.21 25.36,-0.21 24.53,0.62Z " /></g></g></svg>