<svg xmlns="http://www.w3.org/2000/svg" xmlns:xlink="http://www.w3.org/1999/xlink" width="64" height="64" viewBox="0 0 64 64" fill="none"><g opacity="1" transform="translate(-0.000039950284190126695 0.00005425347217169474)  rotate(0 32 32)"><g opacity="1" transform="translate(5 5)  rotate(0 27 27)"><path id="矩形" fill-rule="evenodd" style="fill:#FFFFFF" transform="translate(0 3.176470588235294)  rotate(0 11.91176470588235 11.911764705882355)" opacity="0.5" d="M8,23.82L15.82,23.82C20.24,23.82 23.82,20.24 23.82,15.82L23.82,8C23.82,3.58 20.24,0 15.82,0L8,0C3.58,0 0,3.58 0,8L0,15.82C0,20.24 3.58,23.82 8,23.82Z " /><path id="矩形备份 6" fill-rule="evenodd" style="fill:#FFFFFF" transform="translate(0 30.1764705882353)  rotate(0 11.91176470588235 11.91176470588235)" opacity="0.5" d="M8,23.82L15.82,23.82C20.24,23.82 23.82,20.24 23.82,15.82L23.82,8C23.82,3.58 20.24,0 15.82,0L8,0C3.58,0 0,3.58 0,8L0,15.82C0,20.24 3.58,23.82 8,23.82Z " /><path id="矩形备份 7" fill-rule="evenodd" style="fill:#FFFFFF" transform="translate(27 30.1764705882353)  rotate(0 11.91176470588235 11.91176470588235)" opacity="0.5" d="M8,23.82L15.82,23.82C20.24,23.82 23.82,20.24 23.82,15.82L23.82,8C23.82,3.58 20.24,0 15.82,0L8,0C3.58,0 0,3.58 0,8L0,15.82C0,20.24 3.58,23.82 8,23.82Z " /><path id="矩形备份 8" fill-rule="evenodd" style="fill:#FFFFFF" transform="translate(28.58823529411728 4.764705882352995)  rotate(-315 10.323529411764705 10.323529411764705)" opacity="0.5" d="M8,20.65L12.65,20.65C17.07,20.65 20.65,17.07 20.65,12.65L20.65,8C20.65,3.58 17.07,0 12.65,0L8,0C3.58,0 0,3.58 0,8L0,12.65C0,17.07 3.58,20.65 8,20.65Z " /></g></g></svg>