<svg xmlns="http://www.w3.org/2000/svg" xmlns:xlink="http://www.w3.org/1999/xlink" width="64" height="64" viewBox="0 0 64 64" fill="none"><g opacity="1" transform="translate(-0.000039950284190126695 -0.00005425347217169474)  rotate(0 32 32)"><g opacity="0.8" transform="translate(5 5)  rotate(0 27.5 27.5)"><path id="三角形" fill-rule="evenodd" style="fill:#FFFFFF" transform="translate(0 0)  rotate(-270 27.5 27.5)" opacity="0.5" d="M6.47,55L48.53,55C49.92,55 51.21,54.28 51.94,53.1C52.66,51.92 52.73,50.45 52.11,49.21L31.08,7.16C30.4,5.8 29.02,4.94 27.5,4.94C25.98,4.94 24.6,5.8 23.92,7.16L2.89,49.21C2.27,50.45 2.34,51.92 3.06,53.1C3.79,54.28 5.08,55 6.47,55Z " /><path id="三角形" fill-rule="evenodd" style="fill:#FFFFFF" transform="translate(0 0)  rotate(-270 21.5 21.5)" opacity="0.25" d="M6.47,43L36.53,43C37.92,43 39.21,42.28 39.94,41.1C40.66,39.92 40.73,38.45 40.11,37.21L25.08,7.16C24.4,5.8 23.02,4.94 21.5,4.94C19.98,4.94 18.6,5.8 17.92,7.16L2.89,37.21C2.27,38.45 2.34,39.92 3.06,41.1C3.79,42.28 5.08,43 6.47,43Z " /><path id="三角形" fill-rule="evenodd" style="fill:#FFFFFF" transform="translate(0 0)  rotate(-270 15 15)" opacity="0.2" d="M6.47,30L23.53,30C24.92,30 26.21,29.28 26.94,28.1C27.66,26.92 27.73,25.45 27.11,24.21L18.58,7.16C17.9,5.8 16.52,4.94 15,4.94C13.48,4.94 12.1,5.8 11.42,7.16L2.89,24.21C2.27,25.45 2.34,26.92 3.06,28.1C3.79,29.28 5.08,30 6.47,30Z " /></g></g></svg>