<svg xmlns="http://www.w3.org/2000/svg" xmlns:xlink="http://www.w3.org/1999/xlink" width="64" height="64" viewBox="0 0 64 64" fill="none"><g opacity="1" transform="translate(-0.000039950284190126695 -0.00004069010424245789)  rotate(0 32 32)"><g opacity="1" transform="translate(0 14)  rotate(0 30.5 20.5)"><path id="路径 16" fill-rule="evenodd" style="fill:#FFFFFF" transform="translate(15.72802815484009 1.15760887712328)  rotate(0 21.76491664980149 18.31790421953478)" opacity="0.25" d="M40.16,1.55L0.29,19.9C0.11,19.98 0,20.16 0,20.35L0,32.34C0,33.12 0.45,33.83 1.16,34.16C1.86,34.48 2.7,34.37 3.29,33.87L40.7,2.39C40.92,2.23 40.97,1.94 40.83,1.71C40.68,1.49 40.39,1.42 40.16,1.55Z " /><path id="路径 15" fill-rule="evenodd" style="fill:#FFFFFF" transform="translate(3.552713678800501e-15 -3.552713678800501e-15)  rotate(0 30.034403283042703 20.130091859865164)" opacity="0.4" d="M45.54,37.94L58.8,3.31C59.06,2.64 58.93,1.88 58.47,1.32C58.01,0.77 57.29,0.5 56.58,0.63L4.92,9.95C4.11,10.09 3.48,10.71 3.31,11.52C3.15,12.32 3.49,13.14 4.17,13.59L42.57,38.89C43.08,39.22 43.71,39.31 44.28,39.13C44.86,38.94 45.32,38.51 45.54,37.94Z " /></g></g></svg>