<svg xmlns="http://www.w3.org/2000/svg" xmlns:xlink="http://www.w3.org/1999/xlink" width="26" height="26" viewBox="0 0 26 26" fill="none"><defs><radialGradient id="linear_0" cx="54.012697597737436%" cy="45.361543781565494%" fx="54.012697597737436%" fy="45.361543781565494%" r="0.7281250506344468" gradientTransform="translate(0.5401269759773744 0.45361543781565494) scale(0.9999999999999984 1) rotate(85.1545899426373) scale(1 1) translate(-0.5401269759773744 -0.45361543781565494)" ><stop offset="0" stop-color="#6E12EB" stop-opacity="1" /><stop offset="1" stop-color="#7339C4" stop-opacity="1" /></radialGradient><radialGradient id="linear_1" cx="54.012697597737436%" cy="45.361543781565494%" fx="54.012697597737436%" fy="45.361543781565494%" r="0.7281250506344468" gradientTransform="translate(0.5401269759773744 0.45361543781565494) scale(0.9999999999999964 1) rotate(85.1545899426373) scale(1 1) translate(-0.5401269759773744 -0.45361543781565494)" ><stop offset="0" stop-color="#6E12EB" stop-opacity="1" /><stop offset="1" stop-color="#7339C4" stop-opacity="1" /></radialGradient><radialGradient id="linear_2" cx="54.012697597737436%" cy="45.361543781565494%" fx="54.012697597737436%" fy="45.361543781565494%" r="0.7281250506344468" gradientTransform="translate(0.5401269759773744 0.45361543781565494) scale(0.999999999999999 1) rotate(85.1545899426373) scale(1 1) translate(-0.5401269759773744 -0.45361543781565494)" ><stop offset="0" stop-color="#6E12EB" stop-opacity="1" /><stop offset="1" stop-color="#7339C4" stop-opacity="1" /></radialGradient></defs><g opacity="1" transform="translate(0 0)  rotate(0 13 13)"><path id="矩形" fill-rule="evenodd" fill="url(#linear_0)" transform="translate(3.823529411752997 3.823529411757251)  rotate(-285 9.176470588235285 9.17647058823527)" opacity="0.8" d="M2,18.35L16.35,18.35C17.45,18.35 18.35,17.45 18.35,16.35L18.35,2C18.35,0.9 17.45,0 16.35,0L2,0C0.9,0 0,0.9 0,2L0,16.35C0,17.45 0.9,18.35 2,18.35Z " /><path id="矩形" fill-rule="evenodd" fill="url(#linear_1)" transform="translate(4.588235294103304 4.58823529412323)  rotate(-255 8.411764705882355 8.411764705882325)" opacity="0.8" d="M2,16.82L14.82,16.82C15.92,16.82 16.82,15.92 16.82,14.82L16.82,2C16.82,0.9 15.92,0 14.82,0L2,0C0.9,0 0,0.9 0,2L0,14.82C0,15.92 0.9,16.82 2,16.82Z " /><path id="矩形" fill-rule="evenodd" fill="url(#linear_2)" transform="translate(3.823529411772959 3.823529411763753)  rotate(-315 9.17647058823531 9.1764705882353)" opacity="0.8" d="M2,18.35L16.35,18.35C17.45,18.35 18.35,17.45 18.35,16.35L18.35,2C18.35,0.9 17.45,0 16.35,0L2,0C0.9,0 0,0.9 0,2L0,16.35C0,17.45 0.9,18.35 2,18.35Z " /></g></svg>