<svg xmlns="http://www.w3.org/2000/svg" xmlns:xlink="http://www.w3.org/1999/xlink" width="270" height="157" viewBox="0 0 270 157" fill="none"><defs><linearGradient id="linear_0" x1="50%" y1="50%" x2="57.62199999999999%" y2="79.69800000000001%" gradientUnits="objectBoundingBox"><stop offset="0" stop-color="#7AADBF" stop-opacity="1" /><stop offset="1" stop-color="#3D6ED1" stop-opacity="0.01" /></linearGradient><linearGradient id="linear_1" x1="25.2903754%" y1="26.2390594%" x2="141.8115334%" y2="157.920763%" gradientUnits="objectBoundingBox"><stop offset="0" stop-color="#4B6CA6" stop-opacity="1" /><stop offset="1" stop-color="#1F4787" stop-opacity="1" /></linearGradient><linearGradient id="linear_2" x1="35.6467018%" y1="36.5926785%" x2="74.2716862%" y2="72.5764974%" gradientUnits="objectBoundingBox"><stop offset="0" stop-color="#CFDFFA" stop-opacity="1" /><stop offset="1" stop-color="#EAF0FC" stop-opacity="0" /></linearGradient><linearGradient id="linear_3" x1="35.6467018%" y1="29.738116399999992%" x2="74.2716862%" y2="84.118848%" gradientUnits="objectBoundingBox"><stop offset="0" stop-color="#CFDFFA" stop-opacity="1" /><stop offset="1" stop-color="#EAF0FC" stop-opacity="0" /></linearGradient><linearGradient id="linear_4" x1="7.1367505%" y1="53.059031000000004%" x2="295.18064899999996%" y2="85.0238228%" gradientUnits="objectBoundingBox"><stop offset="0" stop-color="#BFD4FA" stop-opacity="1" /><stop offset="1" stop-color="#5792F0" stop-opacity="1" /></linearGradient><linearGradient id="linear_5" x1="50%" y1="0%" x2="51%" y2="71.94500000000001%" gradientUnits="objectBoundingBox"><stop offset="0" stop-color="#CFDFFA" stop-opacity="1" /><stop offset="1" stop-color="#EAF0FC" stop-opacity="0.01" /></linearGradient></defs><g opacity="1" transform="translate(0 0)  rotate(0 135 78.060606)"><path id="云" fill-rule="evenodd" fill="url(#linear_0)" transform="translate(0 20)  rotate(0 110 57.777778)" opacity="1" d="M220,98.06L220,55.28C220,45.61 212.16,37.78 202.5,37.78L165.66,37.78C157.88,15.77 136.89,0 112.22,0C93.31,0 76.57,9.26 66.27,23.5C59.83,19.86 52.38,17.78 44.44,17.78C19.9,17.78 0,37.68 0,62.22C0,70.82 2.44,78.85 6.67,85.65L6.67,98.06C6.67,107.72 14.5,115.56 24.17,115.56L202.5,115.56C212.16,115.56 220,107.72 220,98.06Z " /><path id="路径" fill-rule="evenodd" style="fill:#FFFFFF" transform="translate(108.98717159010673 55.86321609157892)  rotate(0 35.89448233952044 5.518864951309981)" opacity="1" d="M5.52,0C1.84,0 0,1.84 0,5.52C0,9.2 1.84,11.04 5.52,11.04L66.27,11.04C69.95,11.04 71.79,9.2 71.79,5.52C71.79,1.84 69.95,0 66.27,0L5.52,0Z " /><path id="路径" fill-rule="evenodd" style="fill:#FFFFFF" transform="translate(125.5527131022853 83.45657250950461)  rotate(0 27.611711583431145 5.518542091574907)" opacity="1" d="M5.52,0C1.84,0 0,1.84 0,5.52C0,9.2 1.84,11.04 5.52,11.04L49.7,11.04C53.38,11.04 55.22,9.2 55.22,5.52C55.22,1.84 53.38,0 49.7,0L5.52,0Z " /><path id="椭圆形" fill-rule="evenodd" fill="url(#linear_1)" transform="translate(49.534674374464984 0)  rotate(0 78.05279973090707 78)" opacity="1" d="M78.05,156C121.16,156 156.11,121.08 156.11,78C156.11,34.92 121.16,0 78.05,0C34.95,0 0,34.92 0,78C0,121.08 34.95,156 78.05,156Z " /><path id="椭圆形" fill-rule="evenodd" fill="url(#linear_2)" transform="translate(86.52729038221801 21.51605989041599)  rotate(-17.067486 16.137821300124816 8.350972022598233)" opacity="1" d="M16.14,16.7C25.05,16.7 32.28,12.96 32.28,8.35C32.28,3.74 25.05,0 16.14,0C7.23,0 0,3.74 0,8.35C0,12.96 7.23,16.7 16.14,16.7Z " /><path id="椭圆形" fill-rule="evenodd" style="fill:#5792F0" transform="translate(125.56540170100507 47.40761629557187)  rotate(0 17.131081190977575 17.119492670384478)" opacity="0.200000003" d="M17.13,34.24C26.59,34.24 34.26,26.57 34.26,17.12C34.26,7.66 26.59,0 17.13,0C7.67,0 0,7.66 0,17.12C0,26.57 7.67,34.24 17.13,34.24Z " /><path id="椭圆形" fill-rule="evenodd" fill="url(#linear_3)" transform="translate(170.9975132854879 38.405322983144515)  rotate(46.235766999999996 6.1624870790184385 3.9202796235003197)" opacity="1" d="M6.16,7.84C9.57,7.84 12.32,6.09 12.32,3.92C12.32,1.76 9.57,0 6.16,0C2.76,0 0,1.76 0,3.92C0,6.09 2.76,7.84 6.16,7.84Z " /><path id="路径" fill-rule="evenodd" fill="url(#linear_4)" transform="translate(29 44.701842325366385)  rotate(0 102.99999999999999 42.47820363715702)" opacity="1" d="M21.74,46.8C6.36,57.06 -1.91,66.98 0.38,74.34C5.2,89.86 55.06,88.17 111.73,70.57C168.41,52.97 210.45,26.12 205.62,10.61C203.2,2.82 189.41,-0.63 169.1,0.09C169.5,0.92 170.9,3.94 171.27,4.78C179.09,4.78 195.56,4.63 200.07,11.16C205.96,23.47 158.48,50.66 111.09,65.78C63.71,80.91 10.21,86.58 4.91,73.07C3.02,68.66 9.19,60.63 22.69,51.58C22.5,50.69 21.89,47.71 21.74,46.8Z " /><path id="椭圆形" fill-rule="evenodd" style="fill:#5792F0" transform="translate(61.20593847854128 87.29411834913446)  rotate(0 9.610118727459104 9.603617850046069)" opacity="0.200000003" d="M9.61,19.21C14.92,19.21 19.22,14.91 19.22,9.6C19.22,4.3 14.92,0 9.61,0C4.3,0 0,4.3 0,9.6C0,14.91 4.3,19.21 9.61,19.21Z " /><path id="椭圆形" fill-rule="evenodd" style="fill:#5792F0" transform="translate(123.88062567452859 97.31528492060102)  rotate(0 5.8496374716254795 5.845680415818762)" opacity="0.200000003" d="M5.85,11.69C9.08,11.69 11.7,9.07 11.7,5.85C11.7,2.62 9.08,0 5.85,0C2.62,0 0,2.62 0,5.85C0,9.07 2.62,11.69 5.85,11.69Z " /><path id="云" fill-rule="evenodd" fill="url(#linear_5)" transform="translate(109.99999999999997 64)  rotate(0 80 46.06060600000001)" opacity="1" d="M93.09,0C74.18,0 58.18,9.21 49.45,22.45C45.82,20.15 41.45,18.42 36.36,18.42C24,18.42 14.55,27.06 14.55,36.85C14.55,38.58 15.27,40.3 16,42.03C6.55,46.64 0,55.27 0,65.06C0,80.03 14.55,90.97 32,92.12L128.73,92.12C146.18,92.12 160,80.61 160,66.21C160,55.27 152,46.06 140.36,42.03L140.36,39.73C140.36,17.85 119.27,0 93.09,0Z " /></g></svg>