<svg xmlns="http://www.w3.org/2000/svg" xmlns:xlink="http://www.w3.org/1999/xlink" width="216" height="210" viewBox="0 0 216 210" fill="none"><defs><radialGradient id="linear_0" cx="54.012697597737436%" cy="45.361543781565494%" fx="54.012697597737436%" fy="45.361543781565494%" r="0.7281250506344468" gradientTransform="translate(0.5401269759773744 0.45361543781565494) scale(1 1) rotate(85.1545899426373) scale(1 1) translate(-0.5401269759773744 -0.45361543781565494)" ><stop offset="0" stop-color="#FBE94E" stop-opacity="1" /><stop offset="1" stop-color="#F7D17B" stop-opacity="1" /></radialGradient><radialGradient id="linear_1" cx="54.012697597737436%" cy="45.361543781565494%" fx="54.012697597737436%" fy="45.361543781565494%" r="0.7281250506344468" gradientTransform="translate(0.5401269759773744 0.45361543781565494) scale(1 1) rotate(85.1545899426373) scale(1 1) translate(-0.5401269759773744 -0.45361543781565494)" ><stop offset="0" stop-color="#FBE94E" stop-opacity="1" /><stop offset="1" stop-color="#F7D17B" stop-opacity="1" /></radialGradient><radialGradient id="linear_2" cx="54.012697597737436%" cy="45.361543781565494%" fx="54.012697597737436%" fy="45.361543781565494%" r="0.7281250506344468" gradientTransform="translate(0.5401269759773744 0.45361543781565494) scale(0.9999947185124766 1) rotate(85.15456447337107) scale(1 1) translate(-0.5401269759773744 -0.45361543781565494)" ><stop offset="0" stop-color="#FBE94E" stop-opacity="1" /><stop offset="1" stop-color="#F7D17B" stop-opacity="1" /></radialGradient><radialGradient id="linear_3" cx="54.012697597737436%" cy="45.361543781565494%" fx="54.012697597737436%" fy="45.361543781565494%" r="0.7281250506344468" gradientTransform="translate(0.5401269759773744 0.45361543781565494) scale(1.000000000000005 1) rotate(85.15458994263736) scale(1 1) translate(-0.5401269759773744 -0.45361543781565494)" ><stop offset="0" stop-color="#FBE94E" stop-opacity="1" /><stop offset="1" stop-color="#F7D17B" stop-opacity="1" /></radialGradient><radialGradient id="linear_4" cx="54.012697597737436%" cy="45.361543781565494%" fx="54.012697597737436%" fy="45.361543781565494%" r="0.7281250506344468" gradientTransform="translate(0.5401269759773744 0.45361543781565494) scale(1.0000000000000109 1) rotate(85.15458994263736) scale(1 1) translate(-0.5401269759773744 -0.45361543781565494)" ><stop offset="0" stop-color="#FBE94E" stop-opacity="1" /><stop offset="1" stop-color="#F7D17B" stop-opacity="1" /></radialGradient></defs><g opacity="1" transform="translate(11.932982455758264 12.410612966235249)  rotate(8 95.63725104587326 92.42973519115651)"><path id="矩形" fill-rule="evenodd" fill="url(#linear_0)" transform="translate(26.42973519115651 26.42973519115651)  rotate(-323 66 66)" opacity="0.05" d="M16,132L116,132C124.84,132 132,124.84 132,116L132,16C132,7.16 124.84,0 116,0L16,0C7.16,0 0,7.16 0,16L0,116C0,124.84 7.16,132 16,132Z " /><path id="矩形" fill-rule="evenodd" fill="url(#linear_1)" transform="translate(38.73292728359337 24.19073842858416)  rotate(-293 66 66)" opacity="0.05" d="M16,132L116,132C124.84,132 132,124.84 132,116L132,16C132,7.16 124.84,0 116,0L16,0C7.16,0 0,7.16 0,16L0,116C0,124.84 7.16,132 16,132Z " /><path id="矩形" fill-rule="evenodd" fill="url(#linear_2)" transform="translate(39.636984040548874 37.05575603164625)  rotate(-285 52.49060825055664 52.49033102206407)" opacity="0.4" d="M16,104.98L88.98,104.98C97.82,104.98 104.98,97.82 104.98,88.98L104.98,16C104.98,7.16 97.82,0 88.98,0L16,0C7.16,0 0,7.16 0,16L0,88.98C0,97.82 7.16,104.98 16,104.98Z " /><path id="矩形" fill-rule="evenodd" fill="url(#linear_3)" transform="translate(46.255934160662534 43.07142796979043)  rotate(-255 46.49975441082971 46.49975441082995)" opacity="0.4" d="M16,93L77,93C85.84,93 93,85.84 93,77L93,16C93,7.16 85.84,0 77,0L16,0C7.16,0 0,7.16 0,16L0,77C0,85.84 7.16,93 16,93Z " /><path id="矩形" fill-rule="evenodd" fill="url(#linear_4)" transform="translate(40.07060439032699 40.03827062717749)  rotate(-315 52.490331022064076 52.49033102206465)" opacity="0.6" d="M16,104.98L88.98,104.98C97.82,104.98 104.98,97.82 104.98,88.98L104.98,16C104.98,7.16 97.82,0 88.98,0L16,0C7.16,0 0,7.16 0,16L0,88.98C0,97.82 7.16,104.98 16,104.98Z " /></g></svg>